<svg width="24" height="24" viewBox="0 0 24 24" fill="none" xmlns="http://www.w3.org/2000/svg">
<path d="M3.31828 19.2676C2.92776 19.6581 2.92776 20.2913 3.31828 20.6818C3.70881 21.0723 4.34197 21.0723 4.7325 20.6818L12.0001 13.4142L19.2677 20.6818C19.6583 21.0723 20.2914 21.0723 20.682 20.6818C21.0725 20.2913 21.0725 19.6581 20.682 19.2676L13.4143 12L20.6819 4.73238C21.0724 4.34185 21.0724 3.70869 20.6819 3.31816C20.2914 2.92764 19.6582 2.92764 19.2677 3.31816L12.0001 10.5857L4.73255 3.31816C4.34202 2.92764 3.70886 2.92764 3.31833 3.31816C2.92781 3.70869 2.92781 4.34185 3.31833 4.73238L10.5859 12L3.31828 19.2676Z" fill="black"/>
</svg>
