<svg width="24" height="24" viewBox="0 0 24 24" fill="none" xmlns="http://www.w3.org/2000/svg">
<path fill-rule="evenodd" clip-rule="evenodd" d="M2.62548 4.99459C2 6.19869 2 7.78061 2 10.9444V13.0556C2 16.2194 2 17.8013 2.62548 19.0054C3.15257 20.0201 3.9799 20.8474 4.99459 21.3745C6.19869 22 7.78061 22 10.9444 22H13.0556C16.2194 22 17.8013 22 19.0054 21.3745C20.0201 20.8474 20.8474 20.0201 21.3745 19.0054C22 17.8013 22 16.2194 22 13.0556V10.9444C22 7.78061 22 6.19869 21.3745 4.99459C20.8474 3.9799 20.0201 3.15257 19.0054 2.62548C17.8013 2 16.2194 2 13.0556 2H10.9444C7.78061 2 6.19869 2 4.99459 2.62548C3.9799 3.15257 3.15257 3.9799 2.62548 4.99459ZM12 6C12.5523 6 13 6.44772 13 7V11H17C17.5523 11 18 11.4477 18 12C18 12.5523 17.5523 13 17 13H13V17C13 17.5523 12.5523 18 12 18C11.4477 18 11 17.5523 11 17V13H7C6.44772 13 6 12.5523 6 12C6 11.4477 6.44772 11 7 11H11V7C11 6.44772 11.4477 6 12 6Z" fill="black"/>
</svg>
