<svg width="24" height="24" viewBox="0 0 68 68" fill="none" xmlns="http://www.w3.org/2000/svg">
<path d="M33.54 0C26.9064 0 20.4218 1.96709 14.9062 5.65251C9.39056 9.33793 5.09166 14.5762 2.5531 20.7048C0.0145324 26.8334 -0.649671 33.5772 0.644477 40.0833C1.93862 46.5894 5.133 52.5657 9.82365 57.2564C14.5143 61.947 20.4906 65.1414 26.9967 66.4355C33.5028 67.7297 40.2466 67.0655 46.3752 64.5269C52.5038 61.9883 57.7421 57.6894 61.4275 52.1738C65.1129 46.6582 67.08 40.1736 67.08 33.54C67.0699 24.6477 63.533 16.1225 57.2452 9.83475C50.9575 3.54696 42.4323 0.0100645 33.54 0ZM33.54 61.92C27.927 61.92 22.44 60.2555 17.7729 57.1371C13.1059 54.0187 9.46833 49.5863 7.32031 44.4005C5.1723 39.2148 4.61028 33.5085 5.70533 28.0033C6.80038 22.4982 9.50331 17.4413 13.4723 13.4723C17.4413 9.50329 22.4982 6.80036 28.0033 5.70531C33.5085 4.61026 39.2148 5.17228 44.4006 7.3203C49.5863 9.46831 54.0187 13.1058 57.1371 17.7729C60.2555 22.44 61.92 27.927 61.92 33.54C61.9115 41.0642 58.9187 48.2779 53.5983 53.5983C48.2779 58.9187 41.0642 61.9115 33.54 61.92ZM47.0041 16.6235L26.9974 25.7184C26.412 25.9845 25.947 26.4596 25.6935 27.0506L17.4843 46.2063C17.2811 46.6803 17.2246 47.2042 17.3221 47.7106C17.4196 48.217 17.6666 48.6825 18.0313 49.0471C18.3959 49.4117 18.8615 49.6587 19.3679 49.7561C19.8742 49.8536 20.3982 49.797 20.8721 49.5938L40.0275 41.3842C40.6203 41.1303 41.0965 40.6635 41.3622 40.0758L50.4228 20.035C50.6389 19.5568 50.7041 19.0241 50.6097 18.5079C50.5152 17.9917 50.2656 17.5166 49.8942 17.146C49.5227 16.7753 49.0471 16.5267 48.5307 16.4334C48.0143 16.34 47.4818 16.4064 47.0041 16.6235ZM37.0733 37.0365L24.7679 42.3105L30.0426 30.0021L42.895 24.1595L37.0733 37.0365Z" fill="black"/>
</svg>
