<svg width="24" height="24" viewBox="0 0 68 68" fill="none" xmlns="http://www.w3.org/2000/svg">
<path d="M33.54 0C26.9064 0 20.4218 1.96709 14.9062 5.65251C9.39056 9.33793 5.09166 14.5762 2.5531 20.7048C0.0145324 26.8334 -0.649671 33.5772 0.644477 40.0833C1.93862 46.5894 5.133 52.5657 9.82365 57.2564C14.5143 61.947 20.4906 65.1414 26.9967 66.4355C33.5028 67.7297 40.2466 67.0655 46.3752 64.5269C52.5038 61.9883 57.7421 57.6894 61.4275 52.1738C65.1129 46.6582 67.08 40.1736 67.08 33.54C67.0699 24.6477 63.533 16.1225 57.2452 9.83475C50.9575 3.54696 42.4323 0.0100645 33.54 0ZM50.4228 20.035L41.3622 40.0758C41.0965 40.6634 40.6203 41.1303 40.0275 41.3842L20.8721 49.5938C20.3982 49.797 19.8743 49.8535 19.3679 49.756C18.8616 49.6585 18.396 49.4116 18.0314 49.047C17.6668 48.6824 17.4198 48.2169 17.3222 47.7105C17.2247 47.2042 17.2812 46.6803 17.4843 46.2063L25.6936 27.0506C25.947 26.4596 26.412 25.9845 26.9974 25.7184L47.0041 16.6235C47.4818 16.4064 48.0143 16.34 48.5307 16.4334C49.0471 16.5267 49.5227 16.7753 49.8942 17.146C50.2656 17.5166 50.5152 17.9917 50.6097 18.5079C50.7041 19.0241 50.6389 19.5568 50.4228 20.035Z" fill="black"/>
</svg>
