<svg width="30" height="30" viewBox="0 0 24 24" fill="none" xmlns="http://www.w3.org/2000/svg">
<path fill-rule="evenodd" clip-rule="evenodd" d="M2.58 12C2.5806 9.99174 3.2176 8.03534 4.39953 6.41172C5.58146 4.7881 7.24751 3.58081 9.15844 2.9632C11.0694 2.3456 13.1269 2.34946 15.0355 2.97423C16.9441 3.59901 18.6056 4.81255 19.7814 6.44059C20.9572 8.06863 21.5869 10.0274 21.5799 12.0357C21.573 14.0439 20.9298 15.9983 19.7428 17.6182C18.5557 19.238 16.8858 20.4401 14.973 21.0516C13.0601 21.6632 11.0026 21.6528 9.096 21.022L6.238 21.974C6.16288 21.999 6.08288 22.0058 6.0046 21.9939C5.92632 21.982 5.852 21.9516 5.78775 21.9053C5.7235 21.859 5.67116 21.7982 5.63505 21.7277C5.59893 21.6572 5.58006 21.5792 5.58 21.5V18.928C4.63184 18.0405 3.87626 16.9675 3.36018 15.7757C2.8441 14.5839 2.57855 13.2987 2.58 12ZM14.857 14.038L17.507 10.118C17.769 9.732 17.272 9.313 16.892 9.589L14.034 11.604C13.9383 11.6705 13.8246 11.7062 13.708 11.7062C13.5915 11.7062 13.4777 11.6705 13.382 11.604L11.266 10.127C10.633 9.69 9.728 9.85 9.303 10.462L6.653 14.382C6.391 14.768 6.888 15.188 7.268 14.911L10.126 12.896C10.2217 12.8295 10.3355 12.7938 10.452 12.7938C10.5686 12.7938 10.6823 12.8295 10.778 12.896L12.894 14.348C13.527 14.81 14.432 14.65 14.857 14.038Z" fill="black"/>
</svg>
